HIERARCHY
ROOT Hips
{
	OFFSET	0.00	0.00	0.00
	CHANNELS 6 Xposition Yposition Zposition Zrotation Xrotation Yrotation
	JOINT LeftUpLeg
	{
		OFFSET	 0.126116	-0.014019	-0.065224
		CHANNELS 3 Zrotation Xrotation Yrotation
		JOINT LeftLeg
		{
			OFFSET	 0.000000	 0.000000	 0.569914
			CHANNELS 3 Zrotation Xrotation Yrotation
			JOINT LeftFoot
			{
				OFFSET	 0.000000	 0.000000	 0.544423
				CHANNELS 3 Zrotation Xrotation Yrotation
				JOINT LeftToeBase
				{
					OFFSET	 0.000000	 0.000000	 0.207117
					CHANNELS 3 Zrotation Xrotation Yrotation
					End Site
					{
						OFFSET	 0.000000	 0.000000	 0.207117
					}
				}
			}
		}
	}
	JOINT RightUpLeg
	{
		OFFSET	-0.124023	-0.008373	-0.065224
		CHANNELS 3 Zrotation Xrotation Yrotation
		JOINT RightLeg
		{
			OFFSET	 0.000000	 0.000000	 0.570047
			CHANNELS 3 Zrotation Xrotation Yrotation
			JOINT RightFoot
			{
				OFFSET	 0.000000	 0.000000	 0.544354
				CHANNELS 3 Zrotation Xrotation Yrotation
				JOINT RightToeBase
				{
					OFFSET	 0.000000	 0.000000	 0.207540
					CHANNELS 3 Zrotation Xrotation Yrotation
					End Site
					{
						OFFSET	 0.000000	 0.000000	 0.207540
					}
				}
			}
		}
	}
	JOINT Spine
	{
		OFFSET	 0.000184	-0.007763	 0.117403
		CHANNELS 3 Zrotation Xrotation Yrotation
		JOINT Spine1
		{
			OFFSET	 0.000000	 0.000000	 0.137269
			CHANNELS 3 Zrotation Xrotation Yrotation
			JOINT Spine2
			{
				OFFSET	 0.000000	 0.000000	 0.156879
				CHANNELS 3 Zrotation Xrotation Yrotation
				JOINT LeftShoulder
				{
					OFFSET	 0.080501	-0.002496	 0.160144
					CHANNELS 3 Zrotation Xrotation Yrotation
					JOINT LeftArm
					{
						OFFSET	 0.000000	 0.000000	 0.164363
						CHANNELS 3 Zrotation Xrotation Yrotation
						JOINT LeftForeArm
						{
							OFFSET	 0.000000	 0.000000	 0.364576
							CHANNELS 3 Zrotation Xrotation Yrotation
							JOINT LeftHand
							{
								OFFSET	 0.000000	 0.000000	 0.360812
								CHANNELS 3 Zrotation Xrotation Yrotation
								JOINT LeftHandIndex1
								{
									OFFSET	 0.000000	 0.000000	 0.086006
									CHANNELS 3 Zrotation Xrotation Yrotation
									JOINT LeftHandIndex2
									{
										OFFSET	 0.000000	 0.000000	 0.047236
										CHANNELS 3 Zrotation Xrotation Yrotation
										JOINT LeftHandIndex3
										{
											OFFSET	-0.004284	-0.000551	 0.038166
											CHANNELS 3 Zrotation Xrotation Yrotation
											End Site
											{
												OFFSET	-0.004284	-0.000551	 0.038166
											}
										}
									}
								}
							}
						}
					}
				}
				JOINT Neck
				{
					OFFSET	 0.000000	 0.000000	 0.176489
					CHANNELS 3 Zrotation Xrotation Yrotation
					JOINT Head
					{
						OFFSET	 0.000000	-0.001747	 0.077940
						CHANNELS 3 Zrotation Xrotation Yrotation
						End Site
						{
							OFFSET	 0.000000	-0.001747	 0.077940
						}
					}
				}
				JOINT RightShoulder
				{
					OFFSET	-0.080363	 0.000306	 0.159706
					CHANNELS 3 Zrotation Xrotation Yrotation
					JOINT RightArm
					{
						OFFSET	 0.000000	 0.000000	 0.164196
						CHANNELS 3 Zrotation Xrotation Yrotation
						JOINT RightForeArm
						{
							OFFSET	 0.000000	 0.000000	 0.365611
							CHANNELS 3 Zrotation Xrotation Yrotation
							JOINT RightHand
							{
								OFFSET	 0.000000	 0.000000	 0.360648
								CHANNELS 3 Zrotation Xrotation Yrotation
								JOINT RightHandIndex1
								{
									OFFSET	 0.000000	 0.000000	 0.069977
									CHANNELS 3 Zrotation Xrotation Yrotation
									JOINT RightHandIndex2
									{
										OFFSET	 0.000000	 0.000000	 0.052305
										CHANNELS 3 Zrotation Xrotation Yrotation
										JOINT RightHandIndex3
										{
											OFFSET	 0.009002	-0.000782	 0.042196
											CHANNELS 3 Zrotation Xrotation Yrotation
											End Site
											{
												OFFSET	 0.009002	-0.000782	 0.042196
											}
										}
									}
								}
							}
						}
					}
				}
			}
		}
	}
}
MOTION
Frames:    11
Frame Time: 0.03333334
-0.082507	 6.818676	 1.255817	-96.014350	 1.572944	 1.337802	-19.739710	-6.873972	 178.214400	 17.840880	-41.692250	 5.874085	-98.497550	 74.171050	 76.140520	-2.197766	 46.945100	-0.480416	 2.680573	-5.972274	-170.437100	-8.623350	-35.407200	-0.308734	 47.691690	 74.235590	-33.056720	 1.942253	 56.872680	 0.877168	-25.107050	 4.832516	 0.832898	 2.258187	 10.917100	-2.380721	 4.885205	-27.834250	 4.978947	-91.229320	 83.958310	 178.242600	 35.860600	 50.054180	-59.774320	-17.727670	 5.479373	-12.076200	 46.574570	-5.928425	-10.785390	-11.658400	 9.755955	-25.980440	-5.213937	-0.202400	 3.566957	-1.378229	 35.397820	-2.634230	-0.967084	 4.254052	 1.780717	-4.345288	-14.042350	-13.554890	 87.727200	 87.419040	-176.799200	-8.941527	 64.583080	 7.600369	 17.258270	 5.449731	 12.130190	-39.922990	-12.561330	 5.548762	-1.360403	 24.588050	-62.024730	 5.070519	-0.690904	-9.399550	-2.350882	 35.473990	 5.254307
-0.078136	 6.842618	 1.257438	-90.596170	 2.474971	 2.055124	-22.091350	-8.472804	 176.462900	 19.460950	-43.164290	 7.165337	-94.730350	 73.227280	 72.290630	-2.222988	 45.474050	-0.433506	-2.309850	-5.192546	-171.810400	-6.396204	-33.265110	 0.929454	 43.250180	 76.283290	-29.236140	 2.090691	 51.871520	 0.658652	-19.795180	 4.385170	 0.425917	 1.701412	 12.560450	-3.025765	 6.591245	-30.405820	 6.001360	-91.229290	 83.958370	 178.242600	 29.837730	 50.845170	-52.392440	-14.358080	 4.404089	-11.062920	 45.406470	-6.410322	-8.728549	-11.064460	 9.583464	-23.731220	-5.213937	-0.202400	 3.566957	-1.378229	 35.397820	-2.634230	 1.959689	 5.919792	-1.672279	-1.714718	-17.832450	-8.397357	 87.726670	 87.419040	-176.798600	-8.248563	 64.738040	 3.649199	 14.281700	 3.765956	 19.923090	-40.008980	-11.840400	 5.823558	-1.752243	 24.132120	-62.602450	 5.070519	-0.690904	-9.399550	-2.350882	 35.473990	 5.254307
-0.075773	 6.853120	 1.258068	-88.325560	 2.900677	 2.151019	-22.688830	-9.334953	 175.855700	 19.826770	-43.794960	 7.505839	-92.149930	 73.043050	 69.892540	-2.250888	 43.663610	-0.378604	-4.374391	-4.947197	-172.223100	-5.361946	-32.378260	 1.461906	 40.266650	 76.964850	-26.702550	 2.065418	 52.852630	 0.697830	-17.005520	 4.188726	 0.325019	 1.373417	 13.364840	-3.158053	 7.569536	-31.494840	 6.521674	-91.229230	 83.958340	 178.242600	 25.263360	 51.854560	-47.670160	-12.642110	 3.894903	-10.521050	 43.835960	-6.858173	-7.108894	-11.071450	 9.104660	-23.383480	-5.213937	-0.202400	 3.566957	-1.378229	 35.397820	-2.634230	 3.622742	 6.698414	-3.708210	-0.083363	-19.463330	-5.315832	 87.727040	 87.419040	-176.799000	-8.044310	 64.616620	 2.771394	 13.050200	 2.823649	 22.101950	-40.024300	-11.483690	 5.979372	-1.124774	 25.058380	-62.538700	 5.070519	-0.690904	-9.399550	-2.350882	 35.473990	 5.254307
-0.072341	 6.869891	 1.258649	-84.849200	 3.362378	 2.277546	-23.122060	-10.564600	 175.024000	 20.277730	-44.755080	 7.957911	-88.130790	 72.836480	 66.193380	-2.277334	 41.722110	-0.322790	-7.597155	-4.375375	-172.805700	-3.722605	-30.955630	 2.249839	 36.163770	 78.090370	-23.405670	 2.059557	 53.071380	 0.706785	-12.044340	 4.032934	 0.180959	 0.952334	 14.728080	-3.532399	 9.127243	-33.046250	 7.495023	-91.229200	 83.958340	 178.242500	 17.577410	 52.891080	-39.986000	-10.365200	 3.096977	-9.564472	 40.663520	-7.481237	-4.641741	-11.032080	 8.570001	-22.844650	-5.213937	-0.202400	 3.566957	-1.378229	 35.397820	-2.634230	 6.246956	 7.846584	-6.710571	 2.626056	-21.825070	-0.339518	 87.726740	 87.418960	-176.798700	-7.923294	 64.317050	 1.901535	 11.445810	 1.194633	 25.222310	-39.747920	-10.884930	 6.285105	-0.603148	 25.858780	-62.662060	 5.070519	-0.690904	-9.399550	-2.350882	 35.473990	 5.254307
-0.070545	 6.882634	 1.258483	-82.422420	 3.295207	 2.393727	-22.611370	-11.146110	 174.550000	 20.441640	-45.470970	 8.175358	-85.882480	 72.787060	 64.196780	-2.269371	 42.333130	-0.340042	-9.954820	-3.517445	-173.085700	-2.451879	-29.814220	 2.810288	 35.312650	 79.180470	-23.272630	 2.137464	 49.867130	 0.583219	-7.688799	 4.232740	 0.114062	 0.854396	 15.744680	-4.134207	 10.238790	-33.768600	 8.394243	-91.229170	 83.958340	 178.242500	 11.890210	 52.919740	-34.436640	-9.657628	 2.504177	-8.737755	 37.284510	-7.894928	-3.062859	-10.848700	 8.699301	-22.302940	-5.213937	-0.202400	 3.566957	-1.378229	 35.397820	-2.634230	 8.073700	 8.827011	-8.344545	 4.594534	-23.624220	 3.161659	 87.726750	 87.419040	-176.798700	-8.265089	 63.922250	 2.055446	 10.852310	-0.007440	 27.400350	-39.015420	-10.361580	 6.629669	-1.333326	 24.902380	-63.233670	 5.070519	-0.690904	-9.399550	-2.350882	 35.473990	 5.254307
-0.066947	 6.898108	 1.258084	-79.414210	 3.905703	 2.594894	-23.665610	-12.458580	 173.944900	 21.569980	-46.386010	 9.134925	-80.831170	 72.085660	 59.327430	-2.401891	 23.659570	 0.100616	-12.978840	-3.345693	-173.611200	-0.889083	-28.528000	 3.453326	 30.493460	 80.145000	-19.367680	 2.168355	 48.382290	 0.530853	-2.148844	 4.036935	-0.328990	 0.797481	 16.490140	-4.181851	 10.646440	-34.426150	 8.449598	-91.229330	 83.958270	 178.242700	 5.608887	 52.439630	-28.051460	-9.462728	 1.830574	-7.631571	 32.826490	-8.550045	-1.554556	-10.528070	 9.005694	-21.400210	-5.213937	-0.202400	 3.566957	-1.378229	 35.397820	-2.634230	 9.983140	 9.490097	-9.963785	 6.648109	-24.683850	 6.610906	 87.726810	 87.418960	-176.798800	-5.522581	 63.526560	-0.326665	 8.757571	-2.163634	 30.118450	-38.263150	-10.113880	 6.235174	-0.862166	 25.615360	-63.332510	 5.070519	-0.690904	-9.399550	-2.350882	 35.473990	 5.254307
-0.062751	 6.913309	 1.257431	-76.195450	 4.625421	 2.466834	-22.545890	-14.440300	 173.338000	 21.330780	-47.298850	 9.090433	-77.233630	 72.558600	 56.068170	-2.406218	 21.339510	 0.147538	-15.206220	-3.416474	-174.125800	 0.262711	-27.644800	 3.897395	 28.985660	 82.137100	-18.331140	 2.248592	 43.680110	 0.381171	 3.645641	 3.934265	-0.527226	 0.573249	 16.898370	-4.353169	 11.221990	-34.818740	 8.734509	-91.229190	 83.958270	 178.242500	-0.583661	 51.595200	-21.804080	-8.784456	 1.199185	-6.370078	 28.579070	-9.585127	-0.158491	-10.185610	 9.049005	-20.220670	-5.213937	-0.202400	 3.566957	-1.378229	 35.397820	-2.634230	 11.754670	 10.313470	-11.253250	 8.577219	-25.554270	 9.994562	 87.726700	 87.419040	-176.798600	-3.538842	 63.115780	-1.585231	 7.261079	-4.254316	 32.095930	-37.096100	-9.779839	 6.044143	-0.482592	 26.243470	-63.721370	 5.070519	-0.690904	-9.399550	-2.350882	 35.473990	 5.254307
-0.059582	 6.924465	 1.256881	-73.742480	 5.076441	 2.198667	-20.164930	-16.132100	 173.036100	 20.143820	-47.895380	 8.278625	-75.815770	 73.856830	 54.911530	-2.367069	 31.997460	-0.078612	-16.370180	-3.522961	-174.573400	 0.867468	-27.339320	 4.140553	 31.258460	 84.305950	-20.686480	 2.314337	 38.314280	 0.233131	 7.900027	 4.015644	-0.507539	 0.311385	 17.014090	-4.539883	 11.815490	-34.936070	 9.132066	-91.229260	 83.958310	 178.242600	-4.826977	 50.982190	-17.705130	-7.787331	 0.790220	-5.354104	 25.799490	-10.503500	 0.762493	-9.984719	 8.910359	-19.417570	-5.213937	-0.202400	 3.566957	-1.378229	 35.397820	-2.634230	 12.962130	 11.004060	-11.990510	 9.896173	-26.109220	 12.419810	 87.726850	 87.418890	-176.798800	-2.928126	 62.771450	-1.531043	 6.620093	-5.504738	 32.895530	-35.920230	-9.456181	 6.122696	-0.453346	 26.372680	-64.179690	 5.070519	-0.690904	-9.399550	-2.350882	 35.473990	 5.254307
-0.056566	 6.938957	 1.256052	-70.697890	 5.413998	 2.387314	-18.149020	-17.639170	 172.462900	 19.490970	-48.526340	 7.862609	-73.807760	 74.932820	 52.943350	-2.373657	 30.882210	-0.053426	-18.618600	-3.226582	-175.712700	 1.882399	-26.691270	 4.516080	 25.881040	 86.148880	-15.744770	 2.332144	 36.439690	 0.185704	 12.910120	 4.350413	-1.031309	 0.082851	 16.984650	-4.402833	 11.949260	-34.964790	 8.892023	-91.229370	 83.958370	 178.242700	-8.482886	 50.398550	-13.792110	-5.868772	 0.371565	-4.028913	 23.274660	-11.318950	 1.483197	-10.162160	 8.986733	-20.095620	-5.213937	-0.202400	 3.566957	-1.378229	 35.397820	-2.634230	 14.141240	 11.000810	-12.438580	 10.996850	-25.844090	 14.331710	 87.726970	 87.418820	-176.798900	-0.784504	 62.456820	-2.515175	 5.222842	-7.418054	 33.740190	-34.482020	-9.336466	 5.754524	-0.087307	 26.831650	-63.836660	 5.070519	-0.690904	-9.399550	-2.350882	 35.473990	 5.254307
-0.053329	 6.952737	 1.255116	-67.911250	 5.942950	 2.483696	-15.370730	-19.444600	 172.076800	 18.186380	-49.065900	 6.928895	-72.800940	 76.512930	 52.055270	-2.359163	 33.206930	-0.106465	-21.563200	-3.534129	-176.749700	 3.124254	-26.507650	 5.057049	 11.649680	 87.061020	-2.284711	 2.339118	 35.628930	 0.165770	 17.843800	 4.434188	-1.601982	 0.066301	 16.759040	-3.835314	 11.306620	-34.784440	 8.034204	-91.229260	 83.958340	 178.242600	-11.067500	 50.072580	-10.767140	-2.907603	 0.070999	-2.660801	 21.895050	-11.726350	 2.051425	-10.528000	 7.771893	-20.558460	-5.213937	-0.202400	 3.566957	-1.378229	 35.397820	-2.634230	 14.711140	 11.289810	-12.578660	 11.705880	-25.807110	 16.266180	 87.727230	 87.418890	-176.799200	-0.398352	 62.092120	-1.954849	 4.093792	-9.125116	 34.298110	-33.256820	-9.005889	 5.836272	-0.663965	 26.087940	-64.261840	 5.070519	-0.690904	-9.399550	-2.350882	 35.473990	 5.254307
-0.048476	 6.973527	 1.253399	-64.100460	 6.403310	 2.445728	-10.422260	-21.706680	 172.334300	 16.672450	-49.512910	 5.813198	-69.457310	 78.439990	 48.720390	-2.384821	 28.677880	-0.004872	-25.431120	-4.433694	-177.887300	 5.704337	-27.471710	 6.463974	-43.242390	 89.356240	 50.841360	 2.377486	 29.888040	 0.032771	 25.647490	 4.791414	-1.724928	 0.491520	 16.530830	-4.108230	 11.269520	-34.291650	 8.246221	-91.229190	 83.958270	 178.242500	-14.517330	 49.509750	-7.209323	 2.774199	-0.143620	-0.499811	 20.311670	-11.822820	 2.689766	-10.790880	 6.661468	-20.723950	-5.213937	-0.202400	 3.566957	-1.378229	 35.397820	-2.634230	 15.472330	 11.964430	-12.472690	 12.570240	-26.256450	 18.438700	 87.726840	 87.419040	-176.798800	 1.447383	 62.350650	-2.570879	 0.762459	-12.416180	 33.832740	-32.040680	-8.738428	 5.498236	-1.132893	 25.349430	-63.945400	 5.070519	-0.690904	-9.399550	-2.350882	 35.473990	 5.254307
